<svg xmlns="http://www.w3.org/2000/svg" width="2400" height="2400" preserveAspectRatio="xMidYMid meet" version="1.0" viewBox="0 0 1800 1800"><metadata>Created by potrace 1.14, written by Peter Selinger 2001-2017</metadata><g fill="#000" stroke="none"><path d="M8716 11198 c-153 -436 -281 -796 -285 -799 -3 -3 -352 158 -775 358 -423 200 -771 362 -773 360 -1 -2 162 -347 363 -766 201 -420 362 -766 358 -770 -5 -5 -366 -136 -801 -292 -436 -156 -793 -286 -793 -289 0 -3 357 -131 793 -284 435 -153 795 -281 798 -284 3 -4 -157 -353 -357 -776 -200 -423 -363 -771 -361 -773 2 -2 347 162 766 363 420 201 766 362 770 358 4 -5 135 -366 291 -801 156 -436 287 -793 290 -793 3 0 131 357 284 793 153 435 281 795 285 798 3 4 352 -157 775 -357 423 -200 771 -362 773 -361 2 2 -162 347 -363 767 -270 561 -363 764 -354 770 7 5 368 135 802 291 433 155 788 285 788 289 0 4 -357 132 -792 284 -436 153 -796 281 -799 285 -3 3 157 352 357 775 200 423 363 771 361 773 -2 1 -347 -162 -766 -363 -419 -202 -766 -363 -770 -358 -4 5 -135 366 -291 802 -156 435 -287 792 -290 792 -3 0 -131 -357 -284 -792z m409 -718 c207 -20 366 -65 538 -151 294 -148 518 -371 664 -664 213 -424 212 -915 -4 -1337 -74 -146 -160 -264 -273 -378 -456 -455 -1149 -566 -1722 -273 -212 108 -404 272 -537 458 -129 182 -228 428 -262 650 -16 103 -16 327 0 430 34 222 133 468 262 650 246 344 644 573 1069 614 124 12 144 12 265 1z" transform="translate(0.000000,1800.000000) scale(0.100000,-0.100000)"/><path d="M8850 10280 c-854 -106 -1371 -1003 -1032 -1788 275 -635 1006 -942 1649 -691 171 67 315 162 450 299 88 87 117 130 57 83 -94 -74 -228 -137 -370 -174 -74 -19 -114 -23 -239 -23 -130 1 -163 4 -249 27 -679 182 -978 970 -590 1554 139 209 344 354 593 420 126 34 341 38 466 9 137 -31 293 -103 389 -179 60 -47 31 -4 -57 83 -240 242 -536 372 -874 384 -65 3 -152 1 -193 -4z" transform="translate(0.000000,1800.000000) scale(0.100000,-0.100000)"/><path d="M0 5000 l0 -2000 9000 0 9000 0 0 2000 0 2000 -3384 0 -3384 0 -57 -62 c-364 -396 -895 -707 -1440 -843 -889 -223 -1808 -37 -2538 511 -122 92 -275 229 -376 337 l-54 57 -3383 0 -3384 0 0 -2000z" transform="translate(0.000000,1800.000000) scale(0.100000,-0.100000)"/></g></svg>